:SAMPLES-PER-SECOND 30
:FULLY-SPECIFIED
:DEGREES
567
root  -42.4785 37.3723 29.2127 -122.247 -84.8382 161.002
RightUpLeg  -70.6659 -11.0626 0.498238
RightLeg  35.8816 -5.24736 -4.32574
RightFoot  -1.19816 -0.14905 1.55368
RightToes  0.00048216 0.542163 -0.142577
Spine  73.9301 -5.07049 6.31734
Spine1  7.67163 1.92806 -6.01696
HEad  -28.9318 -10.985 10.7421
LeftShoulder1  4.78887 -26.6275 -8.28465
LeftArm  -76.8595 -52.4739 27.9548
LeftForeArm  -14.6942 -11.0366 2.62979
LeftHand  -0.25398 0.0180481 5.50724
RightShoulder  1.25606 12.4853 -0.623899
RightArm  -79.4336 55.8646 -18.9679
RightForeArm  -14.197 21.2801 5.05744
RightHand  -0.806314 8.42363 -7.23663
LeftUpLeg  -75.5576 21.8837 -33.6942
LeftLeg  33.5508 -2.49349 -1.41737
LeftFoot  -3.73854 -0.818141 12.5978
LeftToes  1.06244e-005 4.65856e-005 -8.18505e-006
568
root  -42.5173 37.3708 29.2418 -122.25 -84.7194 160.546
RightUpLeg  -70.2486 -11.1446 0.305284
RightLeg  36.1158 -5.17004 -4.3013
RightFoot  -1.39337 -0.144222 1.47991
RightToes  0.00048216 0.542163 -0.142577
Spine  74.1249 -5.23634 6.38991
Spine1  7.47823 1.91132 -6.37845
HEad  -29.4386 -10.981 10.797
LeftShoulder1  4.7164 -26.2859 -8.22226
LeftArm  -75.5509 -53.3502 27.461
LeftForeArm  -15.9761 -10.4436 2.24764
LeftHand  -0.25398 0.0180481 5.50724
RightShoulder  1.28385 12.6997 -0.549962
RightArm  -79.5415 55.6089 -18.334
RightForeArm  -13.8049 21.346 5.0492
RightHand  -0.857193 8.63976 -7.55424
LeftUpLeg  -75.1538 22.1524 -33.6216
LeftLeg  33.8083 -2.45872 -1.40887
LeftFoot  -3.99224 -0.784233 12.5334
LeftToes  1.06244e-005 4.65856e-005 -8.18505e-006
569
root  -42.5435 37.3534 29.243 -122.684 -84.7367 160.755
RightUpLeg  -70.0545 -11.1421 0.263387
RightLeg  36.3464 -5.17569 -4.34062
RightFoot  -1.65137 -0.149509 1.58751
RightToes  0.00048216 0.542163 -0.142577
Spine  74.136 -5.48715 6.50316
Spine1  7.31504 1.85343 -6.96451
HEad  -29.8375 -10.8285 10.8458
LeftShoulder1  4.69541 -26.0688 -8.2757
LeftArm  -74.4369 -53.9221 27.2054
LeftForeArm  -16.2121 -10.1696 1.79001
LeftHand  -0.25398 0.0180481 5.50724
RightShoulder  1.43205 13.2533 0.157897
RightArm  -80.4586 55.4219 -19.1426
RightForeArm  -13.6968 21.0972 4.94155
RightHand  -0.922837 8.84492 -7.98929
LeftUpLeg  -75.0652 22.3134 -33.5414
LeftLeg  34.109 -2.46207 -1.4306
LeftFoot  -4.17088 -0.76966 12.6311
LeftToes  1.06244e-005 4.65856e-005 -8.18505e-006
570
root  -42.5546 37.3273 29.2101 -121.608 -84.8443 159.873
RightUpLeg  -70.2846 -11.0803 0.207256
RightLeg  36.5593 -5.33059 -4.49488
RightFoot  -1.88234 -0.157732 1.75581
RightToes  0.00048216 0.542163 -0.142577
Spine  73.8131 -5.72005 6.58721
Spine1  7.20618 1.74902 -7.46912
HEad  -29.9669 -10.5781 10.9639
LeftShoulder1  4.67514 -25.9625 -8.26466
LeftArm  -73.8231 -54.2784 26.8759
LeftForeArm  -15.3409 -10.0286 1.59129
LeftHand  -0.25398 0.0180481 5.50724
RightShoulder  1.54111 13.5951 0.691563
RightArm  -81.6578 55.5077 -20.7688
RightForeArm  -14.1352 20.2898 4.63999
RightHand  -0.953971 8.65179 -8.34437
LeftUpLeg  -75.2904 22.1451 -33.5795
LeftLeg  34.2244 -2.47341 -1.44631
LeftFoot  -4.19749 -0.780791 12.8555
LeftToes  1.06244e-005 4.65856e-005 -8.18505e-006
571
root  -42.5494 37.3177 29.1405 -119.282 -84.9369 157.729
RightUpLeg  -70.5192 -11.0527 0.131491
RightLeg  36.7375 -5.48494 -4.64486
RightFoot  -2.03218 -0.151922 1.71227
RightToes  0.00048216 0.542163 -0.142577
Spine  73.6193 -5.78776 6.47264
Spine1  7.05085 1.59572 -7.60588
HEad  -29.8535 -10.2342 11.1295
LeftShoulder1  4.70778 -26.0273 -8.34747
LeftArm  -73.4725 -54.3756 26.5709
LeftForeArm  -14.5006 -9.79329 1.61
LeftHand  -0.25398 0.0180481 5.50724
RightShoulder  1.43125 13.2819 0.132118
RightArm  -81.73 55.8258 -21.4667
RightForeArm  -14.8945 19.3968 4.31622
RightHand  -0.944099 8.07102 -8.58574
LeftUpLeg  -75.4086 21.9663 -33.6552
LeftLeg  34.1332 -2.57149 -1.51173
LeftFoot  -4.05576 -0.804339 12.9597
LeftToes  1.06244e-005 4.65856e-005 -8.18505e-006
572
root  -42.5275 37.3282 29.0403 -117.936 -85.0277 156.122
RightUpLeg  -70.3318 -11.0668 0.185807
RightLeg  36.9171 -5.49986 -4.68559
RightFoot  -2.14203 -0.133923 1.47961
RightToes  0.00048216 0.542163 -0.142577
Spine  73.8645 -5.66691 6.13794
Spine1  6.84705 1.41061 -7.41961
HEad  -29.567 -9.87156 11.2094
LeftShoulder1  4.7693 -26.1762 -8.48672
LeftArm  -72.9901 -54.2446 26.4451
LeftForeArm  -13.9306 -9.41687 1.63582
LeftHand  -0.25398 0.0180481 5.50724
RightShoulder  1.21614 12.691 -1.0179
RightArm  -79.9459 56.2223 -21.0377
RightForeArm  -15.6514 18.7583 4.1795
RightHand  -0.953513 7.60195 -8.94907
LeftUpLeg  -75.1998 22.163 -33.575
LeftLeg  34.0849 -2.74407 -1.63392
LeftFoot  -3.86343 -0.815568 12.7805
LeftToes  1.06244e-005 4.65856e-005 -8.18505e-006
573
root  -42.4834 37.3378 28.9116 -117.78 -85.2522 155.467
RightUpLeg  -69.9489 -11.0967 0.466549
RightLeg  37.141 -5.45501 -4.68598
RightFoot  -2.24756 -0.115607 1.26162
RightToes  0.00048216 0.542163 -0.142577
Spine  74.198 -5.51477 5.78506
Spine1  6.66104 1.22395 -7.21106
HEad  -29.1132 -9.61481 11.2209
LeftShoulder1  4.69921 -26.1493 -8.24024
LeftArm  -72.4706 -54.2457 26.2658
LeftForeArm  -13.4036 -8.65863 1.70978
LeftHand  -0.25398 0.0180481 5.50724
RightShoulder  1.13641 12.4616 -1.46453
RightArm  -77.426 56.7791 -21.0718
RightForeArm  -16.2379 17.8897 4.09077
RightHand  -0.987395 7.47149 -9.33591
LeftUpLeg  -74.9651 22.6035 -33.3799
LeftLeg  34.1759 -2.95251 -1.79241
LeftFoot  -3.68727 -0.823446 12.5883
LeftToes  1.06244e-005 4.65856e-005 -8.18505e-006
